<svg xmlns="http://www.w3.org/2000/svg" width="1280" height="760" viewBox="0 0 1280 760">
  <rect width="1280" height="760" fill="#f6f7f8"/>
  <rect width="244" height="760" fill="#151719"/>
  <rect x="20" y="18" width="36" height="36" rx="9" fill="#fff" fill-opacity=".1"/>
  <text x="38" y="46" text-anchor="middle" fill="#fff" font-family="Georgia,serif" font-size="28">D</text>
  <text x="68" y="43" fill="#fff" font-family="Inter,Arial" font-size="18" font-weight="700">DENARIUS</text>
  <text x="24" y="102" fill="#fff" fill-opacity=".28" font-family="Inter,Arial" font-size="9" font-weight="700" letter-spacing="1.4">VISÃO GERAL</text>
  <rect x="12" y="116" width="220" height="42" rx="8" fill="#fff" fill-opacity=".1"/>
  <rect x="12" y="126" width="2" height="22" rx="1" fill="#fff"/>
  <circle cx="34" cy="137" r="7" fill="none" stroke="#fff" stroke-width="1.5"/>
  <text x="54" y="142" fill="#fff" font-family="Inter,Arial" font-size="13" font-weight="600">Início</text>
  <text x="54" y="190" fill="#fff" fill-opacity=".48" font-family="Inter,Arial" font-size="13">Transações</text>
  <text x="54" y="234" fill="#fff" fill-opacity=".48" font-family="Inter,Arial" font-size="13">Relatórios</text>
  <text x="24" y="286" fill="#fff" fill-opacity=".28" font-family="Inter,Arial" font-size="9" font-weight="700" letter-spacing="1.4">ORGANIZAÇÃO</text>
  <text x="54" y="330" fill="#fff" fill-opacity=".48" font-family="Inter,Arial" font-size="13">Planejamento</text>
  <text x="54" y="374" fill="#fff" fill-opacity=".48" font-family="Inter,Arial" font-size="13">Contas</text>
  <text x="54" y="418" fill="#fff" fill-opacity=".48" font-family="Inter,Arial" font-size="13">Orçamentos</text>
  <rect x="12" y="680" width="220" height="58" rx="10" fill="#fff" fill-opacity=".06"/>
  <circle cx="38" cy="709" r="16" fill="#303338"/>
  <text x="38" y="714" text-anchor="middle" fill="#fff" font-family="Inter,Arial" font-size="10" font-weight="700">MS</text>
  <text x="64" y="706" fill="#fff" font-family="Inter,Arial" font-size="12" font-weight="600">Mikael Silva</text>
  <text x="64" y="722" fill="#fff" fill-opacity=".4" font-family="Inter,Arial" font-size="9">Plano Pro</text>

  <rect x="244" width="1036" height="72" fill="#fff"/>
  <line x1="244" y1="72" x2="1280" y2="72" stroke="#e7e9ec"/>
  <text x="276" y="32" fill="#111827" font-family="Inter,Arial" font-size="15" font-weight="700">Início</text>
  <text x="276" y="50" fill="#9ca3af" font-family="Inter,Arial" font-size="10">Resumo financeiro do período</text>
  <rect x="930" y="18" width="154" height="36" rx="9" fill="#f6f7f8" stroke="#e7e9ec"/>
  <text x="1007" y="41" text-anchor="middle" fill="#4b5563" font-family="Inter,Arial" font-size="11" font-weight="600">julho de 2026</text>
  <rect x="1120" y="18" width="130" height="36" rx="9" fill="#111827"/>
  <text x="1185" y="41" text-anchor="middle" fill="#fff" font-family="Inter,Arial" font-size="11" font-weight="600">+ Nova transação</text>

  <text x="276" y="108" fill="#9ca3af" font-family="Inter,Arial" font-size="10" font-weight="600">VISÃO GERAL</text>
  <text x="276" y="137" fill="#111827" font-family="Inter,Arial" font-size="25" font-weight="700">Julho de 2026</text>

  <rect x="276" y="160" width="974" height="178" rx="12" fill="#111318"/>
  <text x="304" y="194" fill="#fff" fill-opacity=".45" font-family="Inter,Arial" font-size="10">Resultado do mês</text>
  <text x="304" y="237" fill="#fff" font-family="Inter,Arial" font-size="31" font-weight="700">R$ 8.799,30</text>
  <rect x="1149" y="184" width="73" height="25" rx="6" fill="#10b981" fill-opacity=".12" stroke="#10b981" stroke-opacity=".25"/>
  <text x="1185" y="201" text-anchor="middle" fill="#10b981" font-family="Inter,Arial" font-size="9" font-weight="600">Positivo</text>
  <line x1="276" y1="266" x2="1250" y2="266" stroke="#fff" stroke-opacity=".1"/>
  <line x1="601" y1="266" x2="601" y2="338" stroke="#fff" stroke-opacity=".1"/>
  <line x1="925" y1="266" x2="925" y2="338" stroke="#fff" stroke-opacity=".1"/>
  <circle cx="304" cy="291" r="3" fill="#10b981"/><text x="314" y="295" fill="#fff" fill-opacity=".45" font-family="Inter,Arial" font-size="10">Receitas</text>
  <text x="304" y="320" fill="#fff" fill-opacity=".9" font-family="Inter,Arial" font-size="15" font-weight="600">R$ 11.700,00</text>
  <circle cx="629" cy="291" r="3" fill="#ef4444"/><text x="639" y="295" fill="#fff" fill-opacity=".45" font-family="Inter,Arial" font-size="10">Despesas</text>
  <text x="629" y="320" fill="#fff" fill-opacity=".9" font-family="Inter,Arial" font-size="15" font-weight="600">R$ 2.900,70</text>
  <circle cx="953" cy="291" r="3" fill="#f59e0b"/><text x="963" y="295" fill="#fff" fill-opacity=".45" font-family="Inter,Arial" font-size="10">Valores pendentes</text>
  <text x="953" y="320" fill="#fff" fill-opacity=".9" font-family="Inter,Arial" font-size="15" font-weight="600">R$ 189,50</text>

  <rect x="276" y="358" width="638" height="218" rx="12" fill="#fff" stroke="#e7e9ec"/>
  <text x="300" y="388" fill="#111827" font-family="Inter,Arial" font-size="13" font-weight="700">Movimentações do mês</text>
  <text x="300" y="405" fill="#9ca3af" font-family="Inter,Arial" font-size="9">julho de 2026</text>
  <line x1="276" y1="420" x2="914" y2="420" stroke="#e7e9ec"/>
  <circle cx="302" cy="449" r="14" fill="#ecfdf5"/><text x="328" y="447" fill="#374151" font-family="Inter,Arial" font-size="11" font-weight="600">Salário</text><text x="328" y="462" fill="#9ca3af" font-family="Inter,Arial" font-size="9">Trabalho · 05 jul.</text><text x="886" y="453" text-anchor="end" fill="#059669" font-family="Inter,Arial" font-size="11" font-weight="700">+ R$ 8.500,00</text>
  <line x1="292" y1="478" x2="898" y2="478" stroke="#eef0f2"/>
  <circle cx="302" cy="507" r="14" fill="#fef2f2"/><text x="328" y="505" fill="#374151" font-family="Inter,Arial" font-size="11" font-weight="600">Aluguel</text><text x="328" y="520" fill="#9ca3af" font-family="Inter,Arial" font-size="9">Moradia · 02 jul.</text><text x="886" y="511" text-anchor="end" fill="#374151" font-family="Inter,Arial" font-size="11" font-weight="700">− R$ 2.200,00</text>
  <line x1="292" y1="536" x2="898" y2="536" stroke="#eef0f2"/>
  <text x="328" y="557" fill="#374151" font-family="Inter,Arial" font-size="11" font-weight="600">Supermercado</text><text x="886" y="557" text-anchor="end" fill="#374151" font-family="Inter,Arial" font-size="11" font-weight="700">− R$ 645,30</text>

  <rect x="934" y="358" width="316" height="218" rx="12" fill="#fff" stroke="#e7e9ec"/>
  <text x="958" y="388" fill="#111827" font-family="Inter,Arial" font-size="13" font-weight="700">Orçamento mensal</text>
  <text x="958" y="405" fill="#9ca3af" font-family="Inter,Arial" font-size="9">Limite por categoria no mês</text>
  <circle cx="960" cy="447" r="3" fill="#6366f1"/><text x="972" y="451" fill="#4b5563" font-family="Inter,Arial" font-size="10">Moradia</text><text x="1224" y="451" text-anchor="end" fill="#6b7280" font-family="Inter,Arial" font-size="9">73%</text>
  <rect x="958" y="461" width="266" height="4" rx="2" fill="#eef0f2"/><rect x="958" y="461" width="194" height="4" rx="2" fill="#6366f1"/>
  <circle cx="960" cy="497" r="3" fill="#f59e0b"/><text x="972" y="501" fill="#4b5563" font-family="Inter,Arial" font-size="10">Alimentação</text><text x="1224" y="501" text-anchor="end" fill="#6b7280" font-family="Inter,Arial" font-size="9">54%</text>
  <rect x="958" y="511" width="266" height="4" rx="2" fill="#eef0f2"/><rect x="958" y="511" width="144" height="4" rx="2" fill="#f59e0b"/>
  <circle cx="960" cy="547" r="3" fill="#10b981"/><text x="972" y="551" fill="#4b5563" font-family="Inter,Arial" font-size="10">Saúde</text><text x="1224" y="551" text-anchor="end" fill="#6b7280" font-family="Inter,Arial" font-size="9">31%</text>

  <rect x="276" y="596" width="638" height="138" rx="12" fill="#fff" stroke="#e7e9ec"/>
  <text x="300" y="626" fill="#111827" font-family="Inter,Arial" font-size="13" font-weight="700">Visão mensal</text>
  <text x="300" y="642" fill="#9ca3af" font-family="Inter,Arial" font-size="9">Entradas e saídas dos últimos meses</text>
  <line x1="316" y1="705" x2="882" y2="705" stroke="#eef0f2"/>
  <rect x="355" y="670" width="16" height="35" rx="3" fill="#1f2937"/><rect x="375" y="684" width="16" height="21" rx="3" fill="#cbd0d7"/>
  <rect x="450" y="648" width="16" height="57" rx="3" fill="#1f2937"/><rect x="470" y="678" width="16" height="27" rx="3" fill="#cbd0d7"/>
  <rect x="545" y="661" width="16" height="44" rx="3" fill="#1f2937"/><rect x="565" y="676" width="16" height="29" rx="3" fill="#cbd0d7"/>
  <rect x="640" y="635" width="16" height="70" rx="3" fill="#1f2937"/><rect x="660" y="681" width="16" height="24" rx="3" fill="#cbd0d7"/>
  <rect x="735" y="645" width="16" height="60" rx="3" fill="#1f2937"/><rect x="755" y="673" width="16" height="32" rx="3" fill="#cbd0d7"/>
  <rect x="934" y="596" width="316" height="138" rx="12" fill="#fff" stroke="#e7e9ec"/>
  <text x="958" y="626" fill="#111827" font-family="Inter,Arial" font-size="13" font-weight="700">Categorias do mês</text>
  <circle cx="1010" cy="682" r="34" fill="none" stroke="#e7e9ec" stroke-width="13"/>
  <path d="M1010 648a34 34 0 0 1 31 48" fill="none" stroke="#6366f1" stroke-width="13"/>
  <text x="1080" y="670" fill="#4b5563" font-family="Inter,Arial" font-size="10">Moradia</text><text x="1224" y="670" text-anchor="end" fill="#111827" font-family="Inter,Arial" font-size="10" font-weight="600">R$ 2.200</text>
  <text x="1080" y="696" fill="#4b5563" font-family="Inter,Arial" font-size="10">Alimentação</text><text x="1224" y="696" text-anchor="end" fill="#111827" font-family="Inter,Arial" font-size="10" font-weight="600">R$ 645</text>
</svg>
