<svg xmlns="http://www.w3.org/2000/svg" width="1280" height="760" viewBox="0 0 1280 760" fill="none">
  <rect width="1280" height="760" fill="#fafafa"/>
  <rect width="250" height="760" fill="#111111"/>
  <rect x="28" y="28" width="42" height="42" rx="12" fill="#ffffff" fill-opacity=".12"/>
  <text x="49" y="59" text-anchor="middle" fill="#fff" font-family="Georgia,serif" font-size="34">D</text>
  <text x="84" y="54" fill="#fff" font-family="Inter,Arial" font-size="18" font-weight="700">DENARIUS</text>
  <rect x="24" y="118" width="202" height="42" rx="12" fill="#fff" fill-opacity=".12"/>
  <rect x="24" y="174" width="202" height="42" rx="12" fill="#fff" fill-opacity=".05"/>
  <rect x="24" y="230" width="202" height="42" rx="12" fill="#fff" fill-opacity=".05"/>
  <rect x="250" width="1030" height="68" fill="#ffffff"/>
  <text x="286" y="43" fill="#111827" font-family="Inter,Arial" font-size="18" font-weight="700">Painel</text>
  <rect x="286" y="104" width="218" height="122" rx="18" fill="#ffffff" stroke="#eeeeee"/>
  <rect x="526" y="104" width="218" height="122" rx="18" fill="#ffffff" stroke="#eeeeee"/>
  <rect x="766" y="104" width="218" height="122" rx="18" fill="#ffffff" stroke="#eeeeee"/>
  <rect x="1006" y="104" width="218" height="122" rx="18" fill="#ffffff" stroke="#eeeeee"/>
  <text x="310" y="144" fill="#9ca3af" font-family="Inter,Arial" font-size="13" font-weight="700">SALDO DO MÊS</text>
  <text x="310" y="188" fill="#059669" font-family="Inter,Arial" font-size="30" font-weight="800">R$ 8.799,30</text>
  <text x="550" y="144" fill="#9ca3af" font-family="Inter,Arial" font-size="13" font-weight="700">RECEITAS</text>
  <text x="550" y="188" fill="#059669" font-family="Inter,Arial" font-size="30" font-weight="800">R$ 11.700,00</text>
  <text x="790" y="144" fill="#9ca3af" font-family="Inter,Arial" font-size="13" font-weight="700">DESPESAS</text>
  <text x="790" y="188" fill="#dc2626" font-family="Inter,Arial" font-size="30" font-weight="800">R$ 2.900,70</text>
  <rect x="286" y="260" width="590" height="270" rx="20" fill="#ffffff" stroke="#eeeeee"/>
  <text x="314" y="300" fill="#111827" font-family="Inter,Arial" font-size="16" font-weight="700">Movimentações do mês</text>
  <rect x="314" y="330" width="520" height="1" fill="#eeeeee"/>
  <circle cx="334" cy="369" r="18" fill="#ecfdf5"/>
  <text x="370" y="374" fill="#111827" font-family="Inter,Arial" font-size="14" font-weight="700">Salário</text>
  <text x="774" y="374" fill="#059669" font-family="Inter,Arial" font-size="14" font-weight="700">+ R$ 8.500,00</text>
  <circle cx="334" cy="421" r="18" fill="#fef2f2"/>
  <text x="370" y="426" fill="#111827" font-family="Inter,Arial" font-size="14" font-weight="700">Aluguel</text>
  <text x="774" y="426" fill="#111827" font-family="Inter,Arial" font-size="14" font-weight="700">- R$ 2.200,00</text>
  <rect x="906" y="260" width="318" height="270" rx="20" fill="#ffffff" stroke="#eeeeee"/>
  <text x="934" y="300" fill="#111827" font-family="Inter,Arial" font-size="16" font-weight="700">Categorias do mês</text>
  <circle cx="1065" cy="402" r="72" fill="none" stroke="#3b6cf5" stroke-width="26"/>
  <path d="M1065 330a72 72 0 0172 72" stroke="#ef4444" stroke-width="26" fill="none"/>
  <rect x="286" y="564" width="938" height="142" rx="20" fill="#ffffff" stroke="#eeeeee"/>
  <text x="314" y="604" fill="#111827" font-family="Inter,Arial" font-size="16" font-weight="700">Visão mensal</text>
  <rect x="330" y="650" width="28" height="34" rx="6" fill="#3b6cf5"/>
  <rect x="368" y="626" width="28" height="58" rx="6" fill="#ef4444"/>
  <rect x="430" y="618" width="28" height="66" rx="6" fill="#3b6cf5"/>
  <rect x="468" y="642" width="28" height="42" rx="6" fill="#ef4444"/>
  <rect x="530" y="592" width="28" height="92" rx="6" fill="#3b6cf5"/>
  <rect x="568" y="632" width="28" height="52" rx="6" fill="#ef4444"/>
</svg>
