<svg xmlns="http://www.w3.org/2000/svg" width="1280" height="760" viewBox="0 0 1280 760" fill="none">
  <rect width="1280" height="760" fill="#fafafa"/>
  <rect width="250" height="760" fill="#111111"/>
  <text x="42" y="56" fill="#fff" font-family="Georgia,serif" font-size="34">D</text>
  <text x="84" y="54" fill="#fff" font-family="Inter,Arial" font-size="18" font-weight="700">DENARIUS</text>
  <rect x="24" y="174" width="202" height="42" rx="12" fill="#fff" fill-opacity=".12"/>
  <rect x="250" width="1030" height="68" fill="#ffffff"/>
  <text x="286" y="43" fill="#111827" font-family="Inter,Arial" font-size="18" font-weight="700">Mensal</text>
  <rect x="286" y="104" width="594" height="250" rx="22" fill="#ffffff" stroke="#eeeeee"/>
  <text x="318" y="148" fill="#9ca3af" font-family="Inter,Arial" font-size="12" font-weight="800">ORGANIZAÇÃO MENSAL</text>
  <text x="318" y="186" fill="#111827" font-family="Inter,Arial" font-size="30" font-weight="800">junho de 2026</text>
  <rect x="318" y="226" width="240" height="92" rx="18" fill="#f8fafc" stroke="#eeeeee"/>
  <text x="342" y="260" fill="#111827" font-family="Inter,Arial" font-size="15" font-weight="700">Meta de saldo</text>
  <rect x="342" y="284" width="170" height="8" rx="4" fill="#e5e7eb"/>
  <rect x="342" y="284" width="118" height="8" rx="4" fill="#3b6cf5"/>
  <rect x="590" y="226" width="240" height="92" rx="18" fill="#f8fafc" stroke="#eeeeee"/>
  <text x="614" y="260" fill="#111827" font-family="Inter,Arial" font-size="15" font-weight="700">Limite de gastos</text>
  <rect x="614" y="284" width="170" height="8" rx="4" fill="#e5e7eb"/>
  <rect x="614" y="284" width="96" height="8" rx="4" fill="#10b981"/>
  <rect x="906" y="104" width="318" height="250" rx="22" fill="#ffffff" stroke="#eeeeee"/>
  <text x="934" y="148" fill="#9ca3af" font-family="Inter,Arial" font-size="12" font-weight="800">FECHAMENTO</text>
  <text x="934" y="186" fill="#111827" font-family="Inter,Arial" font-size="26" font-weight="800">Mês aberto</text>
  <rect x="934" y="230" width="262" height="54" rx="14" fill="#111111"/>
  <text x="1065" y="264" text-anchor="middle" fill="#fff" font-family="Inter,Arial" font-size="14" font-weight="700">Fechar mês</text>
  <rect x="286" y="386" width="438" height="284" rx="22" fill="#ffffff" stroke="#eeeeee"/>
  <text x="318" y="430" fill="#111827" font-family="Inter,Arial" font-size="18" font-weight="800">Metas do mês</text>
  <rect x="318" y="462" width="174" height="46" rx="12" fill="#f8fafc" stroke="#eeeeee"/>
  <rect x="514" y="462" width="174" height="46" rx="12" fill="#f8fafc" stroke="#eeeeee"/>
  <rect x="318" y="530" width="370" height="76" rx="14" fill="#f8fafc" stroke="#eeeeee"/>
  <rect x="756" y="386" width="468" height="284" rx="22" fill="#ffffff" stroke="#eeeeee"/>
  <text x="788" y="430" fill="#111827" font-family="Inter,Arial" font-size="18" font-weight="800">Transações recorrentes</text>
  <rect x="788" y="462" width="390" height="54" rx="14" fill="#f8fafc" stroke="#eeeeee"/>
  <text x="816" y="496" fill="#111827" font-family="Inter,Arial" font-size="14" font-weight="700">Aluguel · dia 5 · R$ 2.200,00</text>
  <rect x="788" y="536" width="390" height="54" rx="14" fill="#f8fafc" stroke="#eeeeee"/>
  <text x="816" y="570" fill="#111827" font-family="Inter,Arial" font-size="14" font-weight="700">Salário · dia 1 · R$ 8.500,00</text>
</svg>
