<svg xmlns="http://www.w3.org/2000/svg" width="1280" height="760" viewBox="0 0 1280 760">
  <rect width="1280" height="760" fill="#f6f7f8"/>
  <rect width="244" height="760" fill="#151719"/>
  <rect x="20" y="18" width="36" height="36" rx="9" fill="#fff" fill-opacity=".1"/>
  <text x="38" y="46" text-anchor="middle" fill="#fff" font-family="Georgia,serif" font-size="28">D</text>
  <text x="68" y="43" fill="#fff" font-family="Inter,Arial" font-size="18" font-weight="700">DENARIUS</text>
  <text x="24" y="102" fill="#fff" fill-opacity=".28" font-family="Inter,Arial" font-size="9" font-weight="700" letter-spacing="1.4">VISÃO GERAL</text>
  <text x="54" y="142" fill="#fff" fill-opacity=".48" font-family="Inter,Arial" font-size="13">Início</text>
  <text x="54" y="186" fill="#fff" fill-opacity=".48" font-family="Inter,Arial" font-size="13">Transações</text>
  <text x="54" y="230" fill="#fff" fill-opacity=".48" font-family="Inter,Arial" font-size="13">Relatórios</text>
  <text x="24" y="282" fill="#fff" fill-opacity=".28" font-family="Inter,Arial" font-size="9" font-weight="700" letter-spacing="1.4">ORGANIZAÇÃO</text>
  <rect x="12" y="296" width="220" height="42" rx="8" fill="#fff" fill-opacity=".1"/>
  <rect x="12" y="306" width="2" height="22" rx="1" fill="#fff"/>
  <text x="54" y="322" fill="#fff" font-family="Inter,Arial" font-size="13" font-weight="600">Planejamento</text>
  <text x="54" y="366" fill="#fff" fill-opacity=".48" font-family="Inter,Arial" font-size="13">Contas</text>
  <text x="54" y="410" fill="#fff" fill-opacity=".48" font-family="Inter,Arial" font-size="13">Orçamentos</text>
  <rect x="12" y="680" width="220" height="58" rx="10" fill="#fff" fill-opacity=".06"/>
  <circle cx="38" cy="709" r="16" fill="#303338"/><text x="38" y="714" text-anchor="middle" fill="#fff" font-family="Inter,Arial" font-size="10" font-weight="700">MS</text>
  <text x="64" y="706" fill="#fff" font-family="Inter,Arial" font-size="12" font-weight="600">Mikael Silva</text>
  <text x="64" y="722" fill="#fff" fill-opacity=".4" font-family="Inter,Arial" font-size="9">Plano Pro</text>

  <rect x="244" width="1036" height="72" fill="#fff"/>
  <line x1="244" y1="72" x2="1280" y2="72" stroke="#e7e9ec"/>
  <text x="276" y="32" fill="#111827" font-family="Inter,Arial" font-size="15" font-weight="700">Planejamento</text>
  <text x="276" y="50" fill="#9ca3af" font-family="Inter,Arial" font-size="10">Metas, recorrências e fechamento</text>
  <rect x="930" y="18" width="154" height="36" rx="9" fill="#f6f7f8" stroke="#e7e9ec"/>
  <text x="1007" y="41" text-anchor="middle" fill="#4b5563" font-family="Inter,Arial" font-size="11" font-weight="600">julho de 2026</text>
  <rect x="1120" y="18" width="130" height="36" rx="9" fill="#111827"/>
  <text x="1185" y="41" text-anchor="middle" fill="#fff" font-family="Inter,Arial" font-size="11" font-weight="600">+ Nova transação</text>

  <text x="276" y="110" fill="#9ca3af" font-family="Inter,Arial" font-size="10" font-weight="600" letter-spacing="1">PLANEJAMENTO MENSAL</text>
  <text x="276" y="142" fill="#111827" font-family="Inter,Arial" font-size="26" font-weight="700">Organize julho</text>
  <text x="276" y="162" fill="#6b7280" font-family="Inter,Arial" font-size="11">Defina metas e acompanhe o fechamento do período.</text>

  <rect x="276" y="190" width="634" height="202" rx="12" fill="#fff" stroke="#e7e9ec"/>
  <text x="302" y="222" fill="#111827" font-family="Inter,Arial" font-size="13" font-weight="700">Metas do mês</text>
  <text x="302" y="239" fill="#9ca3af" font-family="Inter,Arial" font-size="9">Valores usados para acompanhar o resultado</text>
  <line x1="276" y1="254" x2="910" y2="254" stroke="#e7e9ec"/>
  <text x="302" y="284" fill="#6b7280" font-family="Inter,Arial" font-size="10">Meta de saldo</text>
  <text x="302" y="309" fill="#111827" font-family="Inter,Arial" font-size="19" font-weight="700">R$ 5.000,00</text>
  <rect x="302" y="326" width="260" height="5" rx="2.5" fill="#eef0f2"/><rect x="302" y="326" width="208" height="5" rx="2.5" fill="#111827"/>
  <text x="302" y="350" fill="#9ca3af" font-family="Inter,Arial" font-size="9">Resultado atual: R$ 8.799,30</text>
  <line x1="590" y1="274" x2="590" y2="362" stroke="#eef0f2"/>
  <text x="618" y="284" fill="#6b7280" font-family="Inter,Arial" font-size="10">Limite de gastos</text>
  <text x="618" y="309" fill="#111827" font-family="Inter,Arial" font-size="19" font-weight="700">R$ 4.500,00</text>
  <rect x="618" y="326" width="260" height="5" rx="2.5" fill="#eef0f2"/><rect x="618" y="326" width="168" height="5" rx="2.5" fill="#f59e0b"/>
  <text x="618" y="350" fill="#9ca3af" font-family="Inter,Arial" font-size="9">Utilizado: R$ 2.900,70</text>

  <rect x="930" y="190" width="320" height="202" rx="12" fill="#111318"/>
  <text x="956" y="222" fill="#fff" fill-opacity=".42" font-family="Inter,Arial" font-size="9" font-weight="600" letter-spacing="1">FECHAMENTO</text>
  <circle cx="960" cy="257" r="4" fill="#10b981"/>
  <text x="974" y="261" fill="#fff" font-family="Inter,Arial" font-size="15" font-weight="700">Mês aberto</text>
  <text x="956" y="288" fill="#fff" fill-opacity=".48" font-family="Inter,Arial" font-size="10">Revise os lançamentos antes de consolidar.</text>
  <rect x="956" y="322" width="268" height="42" rx="8" fill="#fff"/>
  <text x="1090" y="348" text-anchor="middle" fill="#111827" font-family="Inter,Arial" font-size="11" font-weight="700">Fechar julho</text>

  <rect x="276" y="414" width="454" height="294" rx="12" fill="#fff" stroke="#e7e9ec"/>
  <text x="302" y="446" fill="#111827" font-family="Inter,Arial" font-size="13" font-weight="700">Configurar metas</text>
  <text x="302" y="463" fill="#9ca3af" font-family="Inter,Arial" font-size="9">Ajuste os objetivos para este mês</text>
  <text x="302" y="501" fill="#6b7280" font-family="Inter,Arial" font-size="9" font-weight="600">META DE SALDO</text>
  <rect x="302" y="512" width="402" height="42" rx="8" fill="#f6f7f8" stroke="#e7e9ec"/>
  <text x="318" y="538" fill="#374151" font-family="Inter,Arial" font-size="11">R$ 5.000,00</text>
  <text x="302" y="583" fill="#6b7280" font-family="Inter,Arial" font-size="9" font-weight="600">LIMITE DE GASTOS</text>
  <rect x="302" y="594" width="402" height="42" rx="8" fill="#f6f7f8" stroke="#e7e9ec"/>
  <text x="318" y="620" fill="#374151" font-family="Inter,Arial" font-size="11">R$ 4.500,00</text>
  <rect x="574" y="652" width="130" height="36" rx="8" fill="#111827"/>
  <text x="639" y="675" text-anchor="middle" fill="#fff" font-family="Inter,Arial" font-size="10" font-weight="600">Salvar metas</text>

  <rect x="750" y="414" width="500" height="294" rx="12" fill="#fff" stroke="#e7e9ec"/>
  <text x="776" y="446" fill="#111827" font-family="Inter,Arial" font-size="13" font-weight="700">Transações recorrentes</text>
  <text x="776" y="463" fill="#9ca3af" font-family="Inter,Arial" font-size="9">Lançamentos previstos para os próximos meses</text>
  <rect x="1128" y="430" width="96" height="30" rx="7" fill="#f6f7f8" stroke="#e7e9ec"/>
  <text x="1176" y="449" text-anchor="middle" fill="#374151" font-family="Inter,Arial" font-size="9" font-weight="600">+ Adicionar</text>
  <line x1="750" y1="480" x2="1250" y2="480" stroke="#e7e9ec"/>
  <circle cx="792" cy="518" r="15" fill="#fef2f2"/>
  <text x="820" y="515" fill="#374151" font-family="Inter,Arial" font-size="11" font-weight="600">Aluguel</text>
  <text x="820" y="531" fill="#9ca3af" font-family="Inter,Arial" font-size="9">Todo dia 5 · Moradia</text>
  <text x="1218" y="521" text-anchor="end" fill="#374151" font-family="Inter,Arial" font-size="11" font-weight="700">R$ 2.200,00</text>
  <line x1="776" y1="552" x2="1224" y2="552" stroke="#eef0f2"/>
  <circle cx="792" cy="590" r="15" fill="#ecfdf5"/>
  <text x="820" y="587" fill="#374151" font-family="Inter,Arial" font-size="11" font-weight="600">Salário</text>
  <text x="820" y="603" fill="#9ca3af" font-family="Inter,Arial" font-size="9">Todo dia 1 · Trabalho</text>
  <text x="1218" y="593" text-anchor="end" fill="#059669" font-family="Inter,Arial" font-size="11" font-weight="700">R$ 8.500,00</text>
  <line x1="776" y1="624" x2="1224" y2="624" stroke="#eef0f2"/>
  <circle cx="792" cy="662" r="15" fill="#f6f7f8"/>
  <text x="820" y="659" fill="#374151" font-family="Inter,Arial" font-size="11" font-weight="600">Internet</text>
  <text x="820" y="675" fill="#9ca3af" font-family="Inter,Arial" font-size="9">Todo dia 10 · Moradia</text>
  <text x="1218" y="665" text-anchor="end" fill="#374151" font-family="Inter,Arial" font-size="11" font-weight="700">R$ 119,90</text>
</svg>
